<?xml version="1.0" encoding="UTF-8" standalone="no"?>
<!DOCTYPE svg PUBLIC "-//W3C//DTD SVG 20010904//EN"
              "http://www.w3.org/TR/2001/REC-SVG-20010904/DTD/svg10.dtd">

<svg xmlns="http://www.w3.org/2000/svg"
     width="0.4in" height="2.84444in"
     viewBox="0 0 36 256">
  <path id="06 apple"
        fill="none" stroke="black" stroke-width="1"
        d="M 23.24,186.86
           C 25.32,186.86 30.81,187.70 31.42,194.42
             32.18,202.73 28.02,207.96 28.02,207.96
             28.02,207.96 24.22,213.64 18.69,211.46
             18.42,211.36 18.15,211.24 17.87,211.09
             17.48,211.23 17.11,211.35 16.74,211.45
             10.67,213.01 7.83,207.96 7.83,207.96
             7.83,207.96 3.75,202.73 4.31,194.42
             4.77,187.69 10.24,186.86 12.47,186.86
             12.62,186.86 12.76,186.86 12.88,186.87
             14.22,186.94 15.27,187.38 16.60,187.77
             16.60,187.77 16.60,191.05 16.60,191.05
             15.93,190.85 15.53,190.57 15.15,190.18
             14.99,190.03 14.61,190.04 14.45,190.20
             14.30,190.35 14.30,190.62 14.45,190.78
             15.02,191.35 15.71,191.81 16.47,192.03
             16.54,192.09 16.62,192.22 16.72,192.22
             16.72,192.22 16.84,192.22 16.84,192.22
             17.17,192.22 17.51,192.33 17.85,192.33
             18.20,192.33 18.54,192.22 18.87,192.22
             18.87,192.22 18.99,192.22 18.99,192.22
             19.08,192.22 19.16,192.09 19.23,192.03
             19.98,191.81 20.67,191.30 21.24,190.73
             21.39,190.57 21.38,190.33 21.22,190.17
             21.07,190.02 20.79,190.02 20.64,190.17
             20.26,190.56 19.93,190.85 19.27,191.05
             19.27,191.05 19.27,187.55 19.27,187.55
             20.60,187.25 21.41,186.95 22.87,186.87
             22.98,186.86 23.10,186.86 23.24,186.86 Z
           M 25.76,181.94
           C 27.30,181.94 28.70,182.39 29.45,182.68
             29.45,182.68 19.05,186.84 19.05,186.84
             19.57,185.74 20.94,183.31 23.30,182.37
             24.10,182.05 24.95,181.93 25.76,181.94 Z
           M 18.60,179.96
           C 18.60,179.96 18.60,191.56 18.60,191.56
             18.60,191.56 17.27,191.56 17.27,191.56
             17.27,191.56 17.27,180.39 17.27,180.39
             17.27,180.39 17.27,180.22 17.27,180.22
             17.27,180.22 18.46,180.22 18.46,180.22
             18.51,180.22 18.60,179.97 18.60,179.96 Z
           M 17.27,179.96
           C 17.27,179.96 17.27,180.22 17.27,180.22
             17.27,180.22 17.24,180.22 17.24,180.22
             17.20,180.22 17.27,179.97 17.27,179.96 Z" />
</svg>
