<?xml version="1.0" encoding="UTF-8" standalone="no"?>
<!DOCTYPE svg PUBLIC "-//W3C//DTD SVG 20010904//EN"
              "http://www.w3.org/TR/2001/REC-SVG-20010904/DTD/svg10.dtd">

<svg xmlns="http://www.w3.org/2000/svg"
     width="0.4in" height="2.84444in"
     viewBox="0 0 36 256">
  <path id="05 bell"
        fill="none" stroke="black" stroke-width="1"
        d="M 21.47,166.97
           C 21.77,167.67 21.97,168.57 21.97,169.47
             21.97,169.47 21.97,169.67 21.97,169.67
             23.07,169.57 24.07,169.57 24.97,169.37
             26.97,169.17 28.67,168.77 29.77,168.47
             29.87,168.47 30.07,168.37 30.17,168.37
             29.67,168.17 28.77,167.97 27.87,167.77
             26.07,167.37 23.87,167.07 21.47,166.97 Z
           M 15.17,166.87
           C 13.67,166.97 12.27,167.07 11.07,167.17
             9.07,167.37 7.37,167.77 6.27,168.07
             6.17,168.07 5.97,168.17 5.87,168.17
             6.37,168.37 7.27,168.57 8.17,168.77
             9.87,169.07 12.07,169.37 14.57,169.47
             14.57,169.47 14.57,169.27 14.57,169.27
             14.57,168.57 14.77,167.67 15.17,166.87 Z
           M 17.97,145.07
           C 19.47,145.07 20.67,146.17 20.67,147.57
             20.67,147.57 20.67,147.87 20.67,147.87
             25.27,149.17 28.57,153.87 28.57,156.87
             28.57,159.97 26.77,162.37 30.67,165.37
             30.77,165.37 30.77,165.37 30.87,165.47
             31.87,165.77 32.67,166.17 33.27,166.77
             33.67,167.17 33.97,167.67 33.97,168.37
             33.97,169.07 33.67,169.57 33.27,169.97
             32.87,170.37 32.47,170.57 31.97,170.77
             31.07,171.17 29.87,171.57 28.47,171.87
             26.47,172.27 23.87,172.57 21.07,172.67
             20.37,173.77 19.37,174.47 18.17,174.47
             17.07,174.47 15.97,173.77 15.37,172.77
             13.67,172.67 11.97,172.57 10.57,172.47
             8.37,172.17 6.47,171.87 5.07,171.37
             4.07,171.07 3.27,170.67 2.67,170.07
             2.27,169.47 1.97,168.97 1.97,168.27
             1.97,167.57 2.27,167.07 2.67,166.67
             3.07,166.27 3.47,166.07 3.97,165.87
             4.57,165.57 5.17,165.37 5.87,165.17
             9.37,162.27 7.77,159.87 7.77,156.87
             7.77,153.77 10.97,149.37 15.37,147.97
             15.37,147.97 15.37,147.57 15.37,147.57
             15.27,146.17 16.47,145.07 17.97,145.07 Z" />
</svg>
