<?xml version="1.0" encoding="UTF-8" standalone="no"?>
<!DOCTYPE svg PUBLIC "-//W3C//DTD SVG 20010904//EN"
              "http://www.w3.org/TR/2001/REC-SVG-20010904/DTD/svg10.dtd">

<svg xmlns="http://www.w3.org/2000/svg"
     width="0.4in" height="2.84444in"
     viewBox="0 0 36 256">
  <path id="02 cherry"
        fill="none" stroke="black" stroke-width="1"
        d="M 12.05,57.96
           C 12.60,57.96 13.16,58.07 13.62,58.24
             14.13,58.42 14.40,58.71 15.01,58.75
             15.01,58.75 15.03,58.76 15.03,58.76
             15.03,58.76 15.05,58.75 15.05,58.75
             15.65,58.71 15.93,58.42 16.44,58.24
             16.90,58.07 17.46,57.96 18.01,57.96
             18.91,57.96 19.73,58.24 20.16,58.91
             20.65,59.68 20.87,60.61 20.87,61.54
             20.87,62.05 20.81,62.57 20.68,63.06
             20.45,64.02 20.02,64.95 19.48,65.77
             18.47,67.30 16.79,67.99 15.03,68.00
             13.27,67.99 11.59,67.30 10.58,65.77
             10.04,64.95 9.61,64.02 9.38,63.06
             9.25,62.57 9.19,62.06 9.19,61.54
             9.19,60.61 9.41,59.68 9.91,58.91
             10.33,58.24 11.15,57.96 12.05,57.96 Z
           M 19.16,56.06
           C 19.71,56.06 20.27,56.17 20.72,56.34
             21.24,56.52 21.51,56.82 22.12,56.86
             22.12,56.86 22.13,56.86 22.13,56.86
             22.13,56.86 22.15,56.86 22.15,56.86
             22.76,56.82 23.03,56.52 23.55,56.34
             24.01,56.17 24.57,56.06 25.12,56.06
             26.01,56.06 26.84,56.34 27.26,57.01
             27.76,57.79 27.98,58.71 27.98,59.65
             27.98,60.16 27.91,60.67 27.79,61.17
             27.56,62.12 27.13,63.05 26.59,63.88
             25.58,65.40 23.89,66.10 22.14,66.10
             21.48,66.10 20.83,66.00 20.22,65.80
             20.70,65.00 21.08,64.12 21.30,63.22
             21.44,62.67 21.51,62.11 21.51,61.54
             21.51,60.51 21.26,59.46 20.69,58.56
             20.10,57.64 19.02,57.32 18.01,57.32
             17.58,57.32 17.15,57.38 16.76,57.48
             16.84,57.32 16.92,57.16 17.01,57.01
             17.44,56.35 18.26,56.06 19.16,56.06 Z
           M 23.83,36.00
           C 25.53,35.99 26.80,36.26 26.80,36.26
             25.46,36.26 24.71,37.98 24.71,37.98
             23.06,41.76 21.38,42.70 21.38,42.70
             18.16,44.90 16.81,42.32 16.81,42.32
             16.81,42.32 15.88,41.95 15.88,41.95
             19.24,42.51 20.51,41.12 20.51,41.12
             22.03,40.04 24.15,37.04 24.15,37.04
             23.85,37.01 21.75,39.29 21.75,39.29
             19.50,42.28 15.88,41.35 15.88,41.35
             15.88,41.35 14.82,40.95 14.82,40.95
             14.82,40.95 14.83,40.96 14.83,40.96
             14.94,41.05 15.01,41.18 15.09,41.30
             15.14,41.38 15.18,41.47 15.24,41.55
             15.29,41.62 15.37,41.69 15.42,41.76
             22.06,45.98 22.50,55.70 22.52,55.72
             22.53,55.90 22.39,56.05 22.22,56.06
             22.04,56.06 21.89,55.93 21.88,55.75
             21.88,55.75 21.85,55.11 21.69,54.07
             21.23,51.17 19.74,45.32 15.21,42.37
             15.18,42.37 15.15,42.33 15.13,42.37
             15.11,42.40 15.13,42.43 15.13,42.45
             16.28,44.87 16.65,47.41 16.65,49.70
             16.65,54.10 15.28,57.58 15.27,57.61
             15.22,57.73 15.10,57.81 14.98,57.81
             14.94,57.81 14.90,57.80 14.86,57.79
             14.70,57.72 14.62,57.54 14.68,57.37
             14.68,57.37 15.01,56.53 15.35,55.14
             15.68,53.76 16.02,51.83 16.02,49.70
             16.02,47.29 15.59,44.61 14.25,42.14
             14.25,42.14 14.20,42.06 14.20,42.06
             14.16,42.01 14.13,41.95 14.08,41.90
             14.04,41.85 13.98,41.83 13.93,41.79
             13.74,41.66 13.55,41.55 13.35,41.44
             13.19,41.34 12.97,41.22 12.88,41.04
             12.72,40.73 13.15,40.49 13.39,40.31
             13.50,40.23 13.62,40.15 13.75,40.11
             13.92,40.06 14.08,40.11 14.22,40.21
             14.28,40.26 14.33,40.32 14.37,40.39
             14.37,40.39 14.40,40.44 14.40,40.44
             14.40,40.44 15.88,40.90 15.88,40.90
             17.02,36.81 21.00,36.02 23.83,36.00 Z" />
</svg>
