<?xml version="1.0" encoding="UTF-8" standalone="no"?>
<!DOCTYPE svg PUBLIC "-//W3C//DTD SVG 20010904//EN"
              "http://www.w3.org/TR/2001/REC-SVG-20010904/DTD/svg10.dtd">

<svg xmlns="http://www.w3.org/2000/svg"
     width="0.4in" height="2.84444in"
     viewBox="0 0 36 256">
  <path id="01 grapes"
        fill="none" stroke="black" stroke-width="1"
        d="M 18.00,27.59
           C 19.22,27.59 20.21,28.58 20.21,29.80
             20.21,31.02 19.22,32.01 18.00,32.01
             16.78,32.01 15.79,31.02 15.79,29.80
             15.79,28.58 16.78,27.59 18.00,27.59 Z
           M 20.54,22.69
           C 21.76,22.69 22.75,23.68 22.75,24.90
             22.75,26.12 21.76,27.11 20.54,27.11
             19.32,27.11 18.33,26.12 18.33,24.90
             18.33,23.68 19.32,22.69 20.54,22.69 Z
           M 15.46,22.69
           C 16.68,22.69 17.67,23.68 17.67,24.90
             17.67,26.12 16.68,27.11 15.46,27.11
             14.24,27.11 13.25,26.12 13.25,24.90
             13.25,23.68 14.24,22.69 15.46,22.69 Z
           M 23.08,17.79
           C 24.30,17.79 25.29,18.78 25.29,20.00
             25.29,21.22 24.30,22.21 23.08,22.21
             21.86,22.21 20.87,21.22 20.87,20.00
             20.87,18.78 21.86,17.79 23.08,17.79 Z
           M 18.00,17.79
           C 19.22,17.79 20.21,18.78 20.21,20.00
             20.21,21.22 19.22,22.21 18.00,22.21
             16.78,22.21 15.79,21.22 15.79,20.00
             15.79,18.78 16.78,17.79 18.00,17.79 Z
           M 12.92,17.79
           C 14.14,17.79 15.13,18.78 15.13,20.00
             15.13,21.22 14.14,22.21 12.92,22.21
             11.70,22.21 10.71,21.22 10.71,20.00
             10.71,18.78 11.70,17.79 12.92,17.79 Z
           M 25.62,12.89
           C 26.84,12.89 27.83,13.88 27.83,15.10
             27.83,16.32 26.84,17.31 25.62,17.31
             24.40,17.31 23.41,16.32 23.41,15.10
             23.41,13.88 24.40,12.89 25.62,12.89 Z
           M 20.54,12.89
           C 21.76,12.89 22.75,13.88 22.75,15.10
             22.75,16.32 21.76,17.31 20.54,17.31
             19.32,17.31 18.33,16.32 18.33,15.10
             18.33,13.88 19.32,12.89 20.54,12.89 Z
           M 15.46,12.89
           C 16.68,12.89 17.67,13.88 17.67,15.10
             17.67,16.32 16.68,17.31 15.46,17.31
             14.24,17.31 13.25,16.32 13.25,15.10
             13.25,13.88 14.24,12.89 15.46,12.89 Z
           M 10.38,12.89
           C 11.60,12.89 12.59,13.88 12.59,15.10
             12.59,16.32 11.60,17.31 10.38,17.31
             9.16,17.31 8.17,16.32 8.17,15.10
             8.17,13.88 9.16,12.89 10.38,12.89 Z
           M 25.62,7.99
           C 26.84,7.99 27.83,8.98 27.83,10.20
             27.83,11.42 26.84,12.41 25.62,12.41
             24.40,12.41 23.41,11.42 23.41,10.20
             23.41,8.98 24.40,7.99 25.62,7.99 Z
           M 20.54,7.99
           C 21.76,7.99 22.75,8.98 22.75,10.20
             22.75,11.42 21.76,12.41 20.54,12.41
             19.32,12.41 18.33,11.42 18.33,10.20
             18.33,8.98 19.32,7.99 20.54,7.99 Z
           M 15.46,7.99
           C 16.68,7.99 17.67,8.98 17.67,10.20
             17.67,11.42 16.68,12.41 15.46,12.41
             14.24,12.41 13.25,11.42 13.25,10.20
             13.25,8.98 14.24,7.99 15.46,7.99 Z
           M 10.38,7.99
           C 11.60,7.99 12.59,8.98 12.59,10.20
             12.59,11.42 11.60,12.41 10.38,12.41
             9.16,12.41 8.17,11.42 8.17,10.20
             8.17,8.98 9.16,7.99 10.38,7.99 Z
           M 15.38,0.01
           C 15.38,0.01 20.73,0.01 20.73,0.01
             20.73,0.01 20.73,1.35 20.73,1.35
             20.73,1.35 18.73,1.35 18.73,1.35
             18.73,1.35 18.73,6.47 18.73,6.47
             18.73,6.47 18.77,6.39 18.77,6.39
             19.43,5.24 20.91,3.14 23.18,2.40
             25.60,1.61 28.21,2.59 29.32,3.11
             29.32,3.11 18.73,6.58 18.73,6.58
             18.73,6.58 18.73,7.36 18.73,7.36
             18.73,7.36 17.39,7.36 17.39,7.36
             17.39,7.36 17.39,1.35 17.39,1.35
             17.39,1.35 15.38,1.35 15.38,1.35
             15.38,1.35 15.38,0.01 15.38,0.01 Z" />
</svg>
