<?xml version="1.0" encoding="UTF-8" standalone="no"?>
<!DOCTYPE svg PUBLIC "-//W3C//DTD SVG 20010904//EN"
              "http://www.w3.org/TR/2001/REC-SVG-20010904/DTD/svg10.dtd">

<svg xmlns="http://www.w3.org/2000/svg"
     width="0.4in" height="2.84444in"
     viewBox="0 0 36 256">
  <path id="03 orange"
        fill="none" stroke="black" stroke-width="1"
        d="M 27.54,75.02
           C 27.54,75.02 27.78,75.20 27.78,75.20
             31.56,78.16 33.96,82.64 33.96,87.65
             33.96,96.56 26.36,103.78 16.99,103.78
             14.98,103.78 13.05,103.45 11.27,102.84
             11.27,102.84 11.09,102.78 11.09,102.78
             11.09,102.78 11.29,102.79 11.29,102.79
             11.49,102.80 11.69,102.81 11.89,102.81
             12.65,102.81 13.44,102.73 14.24,102.60
             22.12,101.22 29.25,93.21 30.11,84.76
             30.50,81.01 29.62,77.62 27.64,75.13
             27.64,75.13 27.54,75.02 27.54,75.02 Z
           M 19.17,74.25
           C 18.65,74.25 18.11,74.39 17.58,74.78
             16.79,75.32 16.57,76.29 16.61,77.08
             16.54,79.57 16.19,82.05 15.86,84.53
             15.86,84.53 15.69,85.74 15.69,85.74
             15.69,85.74 15.67,85.74 15.67,85.74
             15.50,85.77 15.34,85.83 15.20,85.92
             15.20,85.92 15.18,85.93 15.18,85.93
             15.18,85.93 15.14,85.80 15.14,85.80
             14.32,82.96 14.10,79.90 13.32,77.09
             13.16,76.67 12.79,76.49 12.34,76.50
             12.03,76.51 11.69,76.60 11.35,76.77
             10.42,77.31 9.48,78.04 9.10,79.14
             8.75,80.04 9.20,80.71 9.78,81.08
             11.41,82.42 12.77,83.95 14.14,85.49
             14.14,85.49 14.82,86.23 14.82,86.23
             14.82,86.23 14.80,86.26 14.80,86.26
             14.68,86.39 14.58,86.54 14.50,86.70
             14.50,86.70 14.49,86.74 14.49,86.74
             14.49,86.74 14.39,86.71 14.39,86.71
             11.72,85.92 9.44,84.52 6.82,83.70
             6.75,83.69 6.68,83.68 6.61,83.68
             5.94,83.69 5.24,84.32 4.82,85.11
             4.35,86.12 3.99,87.25 4.39,88.10
             4.69,88.85 5.55,88.83 6.32,88.56
             8.92,87.89 11.39,87.60 13.89,87.25
             13.89,87.25 14.37,87.18 14.37,87.18
             14.37,87.18 14.36,87.21 14.36,87.21
             14.34,87.39 14.36,87.55 14.40,87.69
             14.40,87.69 14.41,87.70 14.41,87.70
             14.41,87.70 14.30,87.77 14.30,87.77
             11.35,89.49 8.34,90.59 5.42,92.25
             4.67,92.76 4.39,93.74 4.57,94.56
             4.83,95.45 5.26,96.31 6.21,96.43
             6.98,96.57 7.75,95.88 8.26,95.13
             10.15,92.72 12.19,90.60 14.21,88.44
             14.21,88.44 14.60,88.03 14.60,88.03
             14.60,88.03 14.61,88.05 14.61,88.05
             14.71,88.14 14.82,88.21 14.96,88.25
             14.96,88.25 14.99,88.26 14.99,88.26
             14.99,88.26 14.78,88.71 14.78,88.71
             13.29,91.81 11.41,94.66 9.94,97.73
             9.61,98.58 10.03,99.31 10.74,99.58
             11.58,99.83 12.56,99.93 13.49,99.23
             14.28,98.69 14.51,97.73 14.46,96.94
             14.54,94.21 14.95,91.50 15.31,88.79
             15.31,88.79 15.38,88.28 15.38,88.28
             15.38,88.28 15.41,88.27 15.41,88.27
             15.57,88.24 15.73,88.18 15.87,88.09
             15.87,88.09 15.89,88.08 15.89,88.08
             15.89,88.08 15.92,88.18 15.92,88.18
             16.75,91.03 16.97,94.10 17.75,96.93
             18.02,97.63 18.89,97.66 19.72,97.24
             20.65,96.70 21.59,95.97 21.97,94.88
             22.32,93.97 21.87,93.30 21.30,92.93
             19.51,91.47 18.05,89.77 16.54,88.10
             16.54,88.10 16.25,87.78 16.25,87.78
             16.25,87.78 16.28,87.76 16.28,87.76
             16.39,87.62 16.49,87.47 16.57,87.31
             16.57,87.31 16.58,87.27 16.58,87.27
             16.58,87.27 16.68,87.30 16.68,87.30
             19.36,88.10 21.63,89.49 24.26,90.31
             24.98,90.45 25.79,89.78 26.25,88.90
             26.72,87.89 27.08,86.77 26.68,85.91
             26.50,85.45 26.09,85.28 25.62,85.28
             25.34,85.29 25.04,85.35 24.75,85.45
             22.16,86.13 19.68,86.42 17.18,86.77
             17.18,86.77 16.71,86.84 16.71,86.84
             16.71,86.84 16.71,86.80 16.71,86.80
             16.73,86.63 16.71,86.47 16.67,86.33
             16.67,86.33 16.66,86.31 16.66,86.31
             16.66,86.31 16.80,86.23 16.80,86.23
             19.75,84.52 22.74,83.42 25.66,81.76
             26.40,81.26 26.68,80.27 26.50,79.46
             26.24,78.57 25.81,77.70 24.86,77.59
             24.79,77.58 24.72,77.57 24.65,77.57
             23.95,77.57 23.28,78.21 22.81,78.89
             21.08,81.09 19.23,83.05 17.38,85.02
             17.38,85.02 16.48,85.99 16.48,85.99
             16.48,85.99 16.46,85.97 16.46,85.97
             16.36,85.87 16.25,85.80 16.11,85.76
             16.11,85.76 16.08,85.76 16.08,85.76
             16.08,85.76 16.15,85.61 16.15,85.61
             17.66,82.39 19.62,79.45 21.13,76.28
             21.46,75.43 21.04,74.71 20.33,74.44
             19.96,74.33 19.57,74.25 19.17,74.25 Z
           M 19.06,72.30
           C 25.43,72.23 29.77,77.38 29.03,84.65
             28.21,92.66 21.50,100.22 14.05,101.52
             6.60,102.83 1.22,97.38 2.04,89.37
             2.86,81.35 9.57,73.80 17.02,72.49
             17.72,72.37 18.40,72.31 19.06,72.30 Z" />
</svg>
