<?xml version="1.0" encoding="UTF-8" standalone="no"?>
<!DOCTYPE svg PUBLIC "-//W3C//DTD SVG 20010904//EN"
              "http://www.w3.org/TR/2001/REC-SVG-20010904/DTD/svg10.dtd">

<svg xmlns="http://www.w3.org/2000/svg"
     width="0.4in" height="2.84444in"
     viewBox="0 0 36 256">
  <path id="07 seven"
        fill="none" stroke="black" stroke-width="1"
        d="M 2.04,216.08
           C 2.04,216.08 33.99,216.08 33.99,216.08
             33.99,216.08 33.99,218.82 33.99,218.82
             33.99,218.82 33.46,219.50 33.46,219.50
             33.46,219.50 32.33,220.98 32.33,220.98
             32.33,220.98 31.28,222.45 31.28,222.45
             31.28,222.45 30.30,223.92 30.30,223.92
             30.30,223.92 29.39,225.38 29.39,225.38
             29.39,225.38 28.55,226.84 28.55,226.84
             28.55,226.84 27.79,228.29 27.79,228.29
             27.79,228.29 27.09,229.74 27.09,229.74
             27.09,229.74 26.48,231.18 26.48,231.18
             26.48,231.18 25.93,232.62 25.93,232.62
             25.93,232.62 25.46,234.06 25.46,234.06
             25.46,234.06 25.06,235.49 25.06,235.49
             25.06,235.49 24.73,236.91 24.73,236.91
             24.73,236.91 24.47,238.33 24.47,238.33
             24.47,238.33 24.29,239.75 24.29,239.75
             24.29,239.75 24.18,241.16 24.18,241.16
             24.18,241.16 24.15,242.56 24.15,242.56
             24.15,242.56 24.16,243.06 24.16,243.06
             24.16,243.06 24.18,243.61 24.18,243.61
             24.18,243.61 24.23,244.22 24.23,244.22
             24.23,244.22 24.30,244.87 24.30,244.87
             24.30,244.87 24.38,245.58 24.38,245.58
             24.38,245.58 24.48,246.34 24.48,246.34
             24.48,246.34 24.61,247.15 24.61,247.15
             24.61,247.15 24.75,248.01 24.75,248.01
             24.75,248.01 11.64,248.01 11.64,248.01
             11.64,248.01 11.74,246.57 11.74,246.57
             11.74,246.57 11.95,245.11 11.95,245.11
             11.95,245.11 12.25,243.64 12.25,243.64
             12.25,243.64 12.65,242.14 12.65,242.14
             12.65,242.14 13.15,240.63 13.15,240.63
             13.15,240.63 13.74,239.09 13.74,239.09
             13.74,239.09 14.44,237.54 14.44,237.54
             14.44,237.54 15.24,235.97 15.24,235.97
             15.24,235.97 16.13,234.37 16.13,234.37
             16.13,234.37 17.12,232.76 17.12,232.76
             17.12,232.76 18.22,231.14 18.22,231.14
             18.22,231.14 19.41,229.49 19.41,229.49
             19.41,229.49 20.70,227.82 20.70,227.82
             20.70,227.82 22.09,226.13 22.09,226.13
             22.09,226.13 23.57,224.43 23.57,224.43
             23.57,224.43 25.16,222.70 25.16,222.70
             25.16,222.70 10.72,222.70 10.72,222.70
             10.72,222.70 2.04,232.11 2.04,232.11
             2.04,232.11 2.04,216.08 2.04,216.08 Z" />
</svg>
