<?xml version="1.0" encoding="UTF-8" standalone="no"?>
<!DOCTYPE svg PUBLIC "-//W3C//DTD SVG 20010904//EN"
              "http://www.w3.org/TR/2001/REC-SVG-20010904/DTD/svg10.dtd">

<svg xmlns="http://www.w3.org/2000/svg"
     width="0.4in" height="2.84444in"
     viewBox="0 0 36 256">
  <path id="04 strawberry"
        fill="none" stroke="black" stroke-width="1"
        d="M 17.95,132.91
           C 18.63,132.91 19.19,132.96 19.19,133.62
             19.19,134.28 18.63,135.79 17.95,135.79
             17.27,135.79 16.72,134.28 16.72,133.62
             16.72,132.96 17.27,132.91 17.95,132.91 Z
           M 20.89,128.25
           C 21.57,128.25 22.12,128.30 22.12,128.96
             22.12,129.62 21.57,131.13 20.89,131.13
             20.21,131.13 19.66,129.62 19.66,128.96
             19.66,128.30 20.21,128.25 20.89,128.25 Z
           M 15.20,128.25
           C 15.88,128.25 16.43,128.30 16.43,128.96
             16.43,129.62 15.88,131.13 15.20,131.13
             14.52,131.13 13.97,129.62 13.97,128.96
             13.97,128.30 14.52,128.25 15.20,128.25 Z
           M 17.95,123.50
           C 18.63,123.50 19.19,123.55 19.19,124.21
             19.19,124.87 18.63,126.38 17.95,126.38
             17.27,126.38 16.72,124.87 16.72,124.21
             16.72,123.55 17.27,123.50 17.95,123.50 Z
           M 12.40,123.50
           C 13.08,123.50 13.63,123.55 13.63,124.21
             13.63,124.87 13.08,126.38 12.40,126.38
             11.72,126.38 11.16,124.87 11.16,124.21
             11.16,123.55 11.72,123.50 12.40,123.50 Z
           M 23.51,122.96
           C 24.19,122.96 24.74,123.01 24.74,123.69
             24.74,124.37 24.19,125.93 23.51,125.93
             22.83,125.93 22.28,124.37 22.28,123.69
             22.28,123.01 22.83,122.96 23.51,122.96 Z
           M 12.59,119.83
           C 10.22,119.83 9.23,120.23 9.23,122.76
             9.23,127.67 13.40,138.07 18.04,138.07
             22.68,138.07 26.85,127.67 26.85,122.76
             26.85,120.23 25.86,119.83 23.49,119.83
             22.79,119.83 22.01,119.87 21.18,119.92
             19.18,120.04 16.90,120.04 14.91,119.92
             14.08,119.87 13.29,119.83 12.59,119.83 Z
           M 16.36,109.28
           C 17.12,110.89 18.25,113.77 17.47,115.09
             17.39,115.22 17.25,115.31 17.09,115.32
             16.93,115.34 16.77,115.28 16.66,115.17
             16.64,115.14 13.92,112.24 11.41,112.24
             11.16,112.24 10.92,112.27 10.69,112.33
             11.45,112.81 12.56,113.70 13.56,115.23
             13.58,115.27 15.17,117.83 17.65,117.83
             17.65,117.83 17.81,117.83 17.81,117.83
             17.88,117.83 18.02,117.84 18.26,117.84
             20.00,117.84 23.83,117.40 24.55,113.64
             23.55,114.57 21.97,115.79 20.55,115.79
             20.31,115.79 20.03,115.62 19.99,115.39
             19.98,115.34 19.10,110.61 16.36,109.28 Z
           M 15.42,108.01
           C 15.44,108.01 15.46,108.01 15.48,108.01
             19.14,108.52 20.54,113.28 20.88,114.78
             22.33,114.49 24.16,112.71 24.79,111.99
             24.93,111.83 25.15,111.77 25.35,111.84
             25.54,111.91 25.68,112.09 25.68,112.30
             25.68,115.15 24.33,116.91 22.48,117.87
             22.48,117.87 22.38,117.92 22.38,117.92
             22.38,117.92 22.62,117.91 22.62,117.91
             22.92,117.90 23.21,117.89 23.49,117.89
             25.99,117.89 28.85,118.44 28.85,122.76
             28.85,128.52 24.18,140.01 18.04,140.01
             11.90,140.01 7.23,128.52 7.23,122.76
             7.23,118.44 10.09,117.89 12.59,117.89
             13.16,117.89 13.76,117.92 14.39,117.95
             14.39,117.95 14.95,117.98 14.95,117.98
             14.95,117.98 14.76,117.86 14.76,117.86
             13.48,116.99 12.75,115.81 12.70,115.73
             11.21,113.43 9.42,112.76 9.41,112.75
             9.23,112.69 9.11,112.53 9.09,112.35
             9.06,112.18 9.15,112.00 9.30,111.90
             9.93,111.48 10.64,111.27 11.41,111.27
             13.56,111.27 15.69,112.92 16.74,113.87
             16.71,112.56 15.78,110.25 14.97,108.71
             14.88,108.55 14.90,108.36 15.01,108.21
             15.10,108.08 15.26,108.01 15.42,108.01 Z" />
</svg>
